<svg version="1" xmlns="http://www.w3.org/2000/svg" width="440" height="440" viewBox="0 0 330.000000 330.000000"><path d="M76.7.6c-.1.1-2.2.4-4.8.7-17.5 2.1-35.4 14.8-44.1 31.3-7.5 14.4-7.1 6.9-7.2 130.4 0 60.8.3 112.4.7 114.8 3.7 23.8 21 43.2 44.3 49.8 5.3 1.5 16.6 1.7 117.2 1.8 84.9.2 112.1-.1 114.8-1 7.7-2.6 10.6-7.7 10.9-18.9.2-8.9-.4-11.2-4.3-16.9l-2.7-3.9v-44.4l2.6-2.4c1.5-1.3 3.1-3.8 3.6-5.4.6-1.8.9-48.5.9-114-.1-109.8-.1-111-2.1-114.5-1.2-1.9-3.6-4.3-5.5-5.5-3.5-2-4.7-2-113.8-2.1C126.6.4 76.8.5 76.7.6zm113.7 42.7c4.4 2.9 4.9 5 4.9 22.8v16.7l17 .1c18.5.1 20.4.6 23 5.9 1.8 3.4 1.6 26.6-.2 29.9-2.1 4-5.8 5.1-17.1 5.1-5.8 0-13.2.1-16.6.1l-6.1.1v37.4c0 33.7-.1 37.7-1.7 40.1-2.5 3.8-5.4 4.5-19.8 4.5h-13l-3.2-3.3-3.3-3.2.1-37.8.1-37.7h-3c-1.6-.1-9.6-.2-17.7-.3-14.7-.2-14.8-.2-17.5-3-2.7-2.7-2.8-3.1-3.1-15.8-.6-21.6-.1-22.1 23.9-22H154l.1-4.2c0-2.3.1-9.8.1-16.7 0-19.4 1.4-20.7 21.9-20.5 9.1.1 12.3.5 14.3 1.8zm74.7 206.1c.5 10.4.3 36.4-.2 37.6-.6 1.3-11.9 1.5-94.6 1.5-88.7-.1-94-.2-97.3-1.9-8.2-4.3-11.3-9.9-11-19.5.2-5.8 1.9-9.9 6-13.8 6.3-6.2 2.7-6 104.3-6H265l.1 2.1z"/></svg>